<svg xmlns="http://www.w3.org/2000/svg" xmlns:xlink="http://www.w3.org/1999/xlink" version="1.1" x="0px" y="0px" viewBox="0 0 100 125" style="enable-background:new 0 0 100 100;" xml:space="preserve"><style type="text/css">
	.st0{fill:none;}
</style><g><path d="M85.8,29c-6.3-9.7-15-16.1-26.2-18.9c-2.6-0.7-5.3,1.1-5.5,3.8c-0.1,0.5-0.1,1.1-0.2,1.6c-0.1,1,0.1,2,0.7,2.8   c0.6,0.9,1.5,1.7,2.7,2c8.5,2.3,14.9,6.9,19.6,14.2c0.7,1,1.7,1.7,2.8,1.9c0.9,0.2,1.9,0.1,2.8-0.3c0.5-0.2,1-0.5,1.5-0.7   C86.3,34.3,87.2,31.3,85.8,29z"/><path d="M76.2,34.9c-4.7-7.2-11-11.7-19.3-13.9c-1-0.3-1.9-0.8-2.6-1.6L52.1,48l26.5-11.2c-0.4-0.2-0.8-0.4-1.1-0.6   C77,35.9,76.6,35.4,76.2,34.9z M59.4,24.7h0.9v5.7h-0.9V24.7z M56.1,41.9c-0.4,0-0.7-0.3-0.7-0.7s0.3-0.7,0.7-0.7s0.7,0.3,0.7,0.7   S56.5,41.9,56.1,41.9z M57,25.2c-0.4,0-0.7-0.3-0.7-0.7c0-0.4,0.3-0.7,0.7-0.7s0.7,0.3,0.7,0.7C57.7,24.9,57.4,25.2,57,25.2z    M57.7,35.5c0-0.4,0.3-0.7,0.7-0.7s0.7,0.3,0.7,0.7s-0.3,0.7-0.7,0.7S57.7,35.9,57.7,35.5z M59.1,41.2l-0.7-0.5l3.2-4.7l0.7,0.5   L59.1,41.2z M66.2,38.8c-0.4,0-0.7-0.3-0.7-0.7c0-0.4,0.3-0.7,0.7-0.7c0.4,0,0.7,0.3,0.7,0.7C66.9,38.5,66.6,38.8,66.2,38.8z    M66.2,29.6c-0.4,0-0.7-0.3-0.7-0.7c0-0.4,0.3-0.7,0.7-0.7c0.4,0,0.7,0.3,0.7,0.7C66.9,29.3,66.6,29.6,66.2,29.6z M72.2,36.4   l-4.9-2.9l0.4-0.8l4.9,2.9L72.2,36.4z"/></g><g><path d="M85.8,70.7c5.6-10.1,7.1-20.8,4.3-32.1c-0.6-2.6-3.5-4.1-6-3.1c-0.5,0.2-1,0.4-1.5,0.6c-1,0.4-1.7,1.1-2.2,1.9   c-0.6,1-0.7,2.1-0.5,3.3c2,8.5,0.9,16.3-3.2,24c-0.6,1.1-0.7,2.3-0.4,3.4c0.3,0.9,0.8,1.7,1.6,2.3c0.4,0.3,0.9,0.7,1.3,1   C81.4,73.7,84.5,73.1,85.8,70.7z"/><path d="M76.1,65.1c4.1-7.5,5.1-15.2,3.2-23.5c-0.2-1-0.2-2.1,0.2-3L53.2,50l22.3,18.1c0-0.4,0-0.8,0-1.2   C75.6,66.3,75.8,65.6,76.1,65.1z M77.1,45.5l0.4,0.8l-5,2.7l-0.4-0.8L77.1,45.5z M60.5,50.7c-0.2-0.3-0.1-0.7,0.3-0.9   c0.3-0.2,0.7-0.1,0.9,0.3c0.2,0.3,0.1,0.7-0.3,0.9C61,51.1,60.6,51,60.5,50.7z M75.6,43.6c-0.2-0.3-0.1-0.7,0.3-0.9   s0.7-0.1,0.9,0.3c0.2,0.3,0.1,0.7-0.3,0.9C76.2,44,75.8,43.9,75.6,43.6z M66.8,49c0.3-0.2,0.7-0.1,0.9,0.3c0.2,0.3,0.1,0.7-0.3,0.9   c-0.3,0.2-0.7,0.1-0.9-0.3C66.4,49.6,66.5,49.2,66.8,49z M62.5,52.9l0.1-0.9l5.7,0.6l-0.1,0.9L62.5,52.9z M67.9,58.1   c-0.2-0.3-0.1-0.7,0.3-0.9c0.3-0.2,0.7-0.1,0.9,0.3s0.1,0.7-0.3,0.9S68.1,58.4,67.9,58.1z M76.1,53.8c-0.2-0.3-0.1-0.7,0.3-0.9   c0.3-0.2,0.7-0.1,0.9,0.3c0.2,0.3,0.1,0.7-0.3,0.9C76.6,54.2,76.2,54.1,76.1,53.8z M72.8,62.3l0.2-5.7l0.9,0l-0.2,5.7L72.8,62.3z"/></g><g><path d="M48.6,90.1c11.6,0.2,21.7-3.5,30.4-11.2c2-1.8,2-5-0.1-6.7c-0.4-0.4-0.8-0.7-1.3-1.1c-0.8-0.7-1.7-1-2.7-1   c-1.1,0-2.2,0.3-3.1,1.1c-6.6,5.8-14,8.5-22.7,8.4c-1.2,0-2.4,0.5-3.2,1.3c-0.7,0.6-1.1,1.5-1.3,2.4c-0.1,0.5-0.2,1.1-0.3,1.6   C43.8,87.6,45.8,90,48.6,90.1z"/><path d="M49,78.9c8.6,0.1,15.8-2.6,22.3-8.2c0.8-0.7,1.8-1.1,2.8-1.2L51.6,51.6L46,79.8c0.3-0.2,0.7-0.4,1.1-0.6   C47.7,79,48.4,78.9,49,78.9z M66.8,70.6l-0.5,0.7l-4.7-3.2l0.5-0.7L66.8,70.6z M54.4,58.3c0.2-0.3,0.6-0.4,0.9-0.2s0.4,0.6,0.2,0.9   c-0.2,0.3-0.6,0.4-0.9,0.2C54.3,59,54.2,58.6,54.4,58.3z M67.8,68.4c0.2-0.3,0.6-0.4,0.9-0.2c0.3,0.2,0.4,0.6,0.2,0.9   c-0.2,0.3-0.6,0.4-0.9,0.2C67.7,69.1,67.6,68.7,67.8,68.4z M58.9,63.2c0.3,0.2,0.4,0.6,0.2,0.9c-0.2,0.3-0.6,0.4-0.9,0.2   c-0.3-0.2-0.4-0.6-0.2-0.9C58.1,63,58.6,62.9,58.9,63.2z M53.3,61.1l0.8-0.3l2.2,5.3l-0.8,0.3L53.3,61.1z M51.3,68.4   c0.2-0.3,0.6-0.4,0.9-0.2c0.3,0.2,0.4,0.6,0.2,0.9c-0.2,0.3-0.6,0.4-0.9,0.2S51.1,68.7,51.3,68.4z M59,73.6   c0.2-0.3,0.6-0.4,0.9-0.2c0.3,0.2,0.4,0.6,0.2,0.9c-0.2,0.3-0.6,0.4-0.9,0.2C58.9,74.3,58.8,73.9,59,73.6z M50,74.7l5.1-2.5   l0.4,0.8l-5.1,2.5L50,74.7z"/></g><g><path d="M13.4,66.1c5.2,10.3,13.3,17.5,24.2,21.5c2.5,0.9,5.3-0.6,5.9-3.3c0.1-0.5,0.2-1.1,0.3-1.6c0.2-1,0.1-2-0.4-2.9   c-0.5-1-1.4-1.8-2.5-2.2c-8.2-3.1-14.1-8.4-18.1-16.1c-0.6-1.1-1.5-1.9-2.6-2.2c-0.9-0.3-1.8-0.3-2.8,0c-0.5,0.2-1,0.4-1.6,0.5   C13.4,60.7,12.2,63.6,13.4,66.1z"/><path d="M23.6,61.2C27.5,68.8,33.3,74,41.3,77c1,0.4,1.8,1,2.4,1.8l5.2-28.3L21.4,59c0.4,0.2,0.7,0.4,1,0.7   C22.8,60.1,23.2,60.6,23.6,61.2z M39.2,73l-0.9-0.1l0.6-5.7l0.9,0.1L39.2,73z M44.2,56.3c0.4,0,0.6,0.4,0.6,0.7   c0,0.4-0.4,0.6-0.7,0.6c-0.4,0-0.6-0.4-0.6-0.7S43.9,56.2,44.2,56.3z M41.7,72.8c0.4,0,0.6,0.4,0.6,0.7c0,0.4-0.4,0.6-0.7,0.6   s-0.6-0.4-0.6-0.7C41,73,41.3,72.7,41.7,72.8z M42.1,62.4c0,0.4-0.4,0.6-0.7,0.6s-0.6-0.4-0.6-0.7c0-0.4,0.4-0.6,0.7-0.6   S42.1,62.1,42.1,62.4z M41.2,56.6l0.7,0.6l-3.6,4.4L37.6,61L41.2,56.6z M33.9,58.3c0.4,0,0.6,0.4,0.6,0.7s-0.4,0.6-0.7,0.6   c-0.4,0-0.6-0.4-0.6-0.7S33.5,58.3,33.9,58.3z M32.9,67.5c0.4,0,0.6,0.4,0.6,0.7c0,0.4-0.4,0.6-0.7,0.6s-0.6-0.4-0.6-0.7   C32.3,67.7,32.6,67.4,32.9,67.5z M27.7,60l4.6,3.3l-0.5,0.7l-4.6-3.3L27.7,60z"/></g><g><path d="M17.7,24.2c-7.1,9.2-10.1,19.6-9,31.1c0.2,2.7,2.8,4.6,5.5,3.9c0.5-0.1,1.1-0.3,1.6-0.4c1-0.2,1.8-0.8,2.4-1.6   c0.7-0.9,1.1-2,1-3.2c-0.7-8.7,1.5-16.3,6.7-23.3c0.7-1,1-2.2,0.9-3.3c-0.1-0.9-0.5-1.8-1.2-2.5c-0.4-0.4-0.8-0.8-1.2-1.2   C22.6,21.8,19.4,22,17.7,24.2z"/><path d="M26.5,31.2C21.3,38,19.2,45.5,19.9,54c0.1,1.1-0.1,2.1-0.6,3L47,49.4L27.5,28.2c0,0.4-0.1,0.8-0.2,1.2   C27.2,30.1,26.9,30.7,26.5,31.2z M22.6,50.4l-0.3-0.8l5.4-1.9l0.3,0.8L22.6,50.4z M39.8,47.7c0.1,0.3-0.1,0.7-0.4,0.8   s-0.7-0.1-0.8-0.4s0.1-0.7,0.4-0.8C39.3,47.2,39.7,47.4,39.8,47.7z M23.8,52.5c0.1,0.3-0.1,0.7-0.4,0.8c-0.3,0.1-0.7-0.1-0.8-0.4   c-0.1-0.3,0.1-0.7,0.4-0.8C23.3,52,23.7,52.2,23.8,52.5z M33.3,48.4c-0.3,0.1-0.7-0.1-0.8-0.4c-0.1-0.3,0.1-0.7,0.4-0.8   c0.3-0.1,0.7,0.1,0.8,0.4S33.7,48.3,33.3,48.4z M38.2,45.2L38,46l-5.5-1.4l0.2-0.9L38.2,45.2z M33.5,39.2c0.1,0.3-0.1,0.7-0.4,0.8   s-0.7-0.1-0.8-0.4c-0.1-0.3,0.1-0.7,0.4-0.8C33,38.7,33.4,38.9,33.5,39.2z M24.9,42.4c0.1,0.3-0.1,0.7-0.4,0.8   c-0.3,0.1-0.7-0.1-0.8-0.4c-0.1-0.3,0.1-0.7,0.4-0.8S24.7,42,24.9,42.4z M29.3,34.4l-1,5.6l-0.9-0.2l1-5.6L29.3,34.4z"/></g><text x="0" y="115" fill="#000000" font-size="5px" font-weight="bold" font-family="'Helvetica Neue', Helvetica, Arial-Unicode, Arial, Sans-serif">Created by Hoeda</text><text x="0" y="120" fill="#000000" font-size="5px" font-weight="bold" font-family="'Helvetica Neue', Helvetica, Arial-Unicode, Arial, Sans-serif">from the Noun Project</text></svg>